<svg width="71" height="70" viewBox="0 0 71 70" fill="none" xmlns="http://www.w3.org/2000/svg">
<path opacity="0.3" d="M64.6668 35C64.6668 51.1083 51.6085 64.1667 35.5002 64.1667C19.3919 64.1667 6.3335 51.1083 6.3335 35C6.3335 18.8917 19.3919 5.83333 35.5002 5.83333C51.6085 5.83333 64.6668 18.8917 64.6668 35Z" fill="#379EFF"/>
<path d="M49.4095 22.8016C50.5086 21.624 52.3542 21.5603 53.5318 22.6594C54.7094 23.7585 54.7731 25.6042 53.674 26.7818L33.2573 48.6568C32.1909 49.7993 30.4135 49.8983 29.2269 48.8812L19.0186 40.1312C17.7955 39.0829 17.6539 37.2416 18.7022 36.0185C19.7505 34.7955 21.5918 34.6539 22.8149 35.7022L30.9004 42.6327L49.4095 22.8016Z" fill="#379EFF"/>
</svg>
